<?xml version="1.0" encoding="UTF-8"?>
<svg width="814px" height="567px" viewBox="0 0 814 567" version="1.1" xmlns="http://www.w3.org/2000/svg" xmlns:xlink="http://www.w3.org/1999/xlink">
    <!-- Generator: Sketch 43.2 (39069) - http://www.bohemiancoding.com/sketch -->
    <title>Group 3</title>
    <desc>Created with Sketch.</desc>
    <defs></defs>
    <g id="Symbols" stroke="none" stroke-width="1" fill="none" fill-rule="evenodd">
        <g id="JS-Everywhere-Logo" fill="#0C1824">
            <g id="Group-3">
                <g id="Group-2-Copy">
                    <g id="Group" transform="translate(200.136536, 82.306452)" fill-rule="nonzero">
                        <path d="M202.419929,0.120607014 C90.4142284,1.88923548 0,93.2962657 0,205.759024 C0,317.215677 88.8027499,408.057765 199.417934,411.398035 C203.750424,411.599229 207.980486,411.553503 211.997708,411.398035 C322.612893,408.057765 411.415642,317.215677 411.415642,205.759024 C411.415642,93.2962657 321.001414,1.88923548 208.995713,0.120607014 C206.093469,-0.0257155671 204.515808,-0.0540655671 202.419929,0.120607014 L202.419929,0.120607014 Z M205.707821,27.2912013 C223.184378,27.2912013 242.636869,43.4358404 258.028225,75.7692898 C263.524733,87.3161076 268.260132,100.81496 272.180466,115.524175 C251.620975,120.577745 229.146161,123.389379 205.707821,123.389379 C182.269481,123.389379 159.794668,120.577745 139.235176,115.524175 C143.15551,100.81496 147.890909,87.3161076 153.387417,75.7692898 C168.778774,43.4358404 188.231269,27.2912013 205.707821,27.2912013 Z M143.523732,38.3024327 C138.051662,46.0536428 133.087045,54.5930286 128.656734,63.9000135 C122.441912,76.9558287 117.076659,91.6940335 112.789068,107.515986 C97.5291179,101.873787 83.8369905,94.8959373 72.1907234,87.0665361 C91.4231933,65.4310964 115.857511,48.5623435 143.523732,38.3024327 L143.523732,38.3024327 Z M267.89191,38.3024327 C295.558131,48.5623435 319.992449,65.4310964 339.224919,87.0665361 C327.578652,94.8959373 313.886525,101.873787 298.626574,107.515986 C294.338983,91.6940335 288.97373,76.9558287 282.758908,63.9000135 C278.328602,54.5930286 273.363981,46.0536428 267.89191,38.3024327 L267.89191,38.3024327 Z M55.6083005,108.94606 C70.5155349,119.22641 87.7437889,127.944447 106.785088,134.686626 C103.489964,152.773514 101.428515,171.988458 100.781107,192.030902 L27.8756268,192.030902 C30.1885645,161.572942 39.9602939,133.204606 55.6083005,108.94606 Z M355.807342,108.94606 C371.455349,133.204606 381.227078,161.572942 383.540016,192.030902 L310.634535,192.030902 C309.987127,171.988458 307.925679,152.773514 304.630555,134.686626 C323.671854,127.944447 340.900108,119.22641 355.807342,108.94606 Z M133.374145,142.4088 C155.953353,147.86334 180.307934,150.845988 205.707821,150.845988 C231.107709,150.845988 255.46229,147.86334 278.041498,142.4088 C280.755941,158.023568 282.570585,174.668265 283.187764,192.030902 L128.227879,192.030902 C128.845057,174.668265 130.659702,158.023568 133.374145,142.4088 L133.374145,142.4088 Z M27.8756268,219.48774 L100.781107,219.48774 C101.42399,239.519301 103.495271,258.771695 106.785088,276.832017 C87.7437889,283.54868 70.5155349,292.299228 55.6083005,302.572445 C39.9602939,278.31399 30.1885645,249.945242 27.8756268,219.48774 L27.8756268,219.48774 Z M128.227879,219.48774 L283.187764,219.48774 C282.576999,236.850286 280.749746,253.491736 278.041498,269.109842 C255.46229,263.682646 231.107709,260.672517 205.707821,260.672517 C180.307934,260.672517 155.953353,263.682646 133.374145,269.109842 C130.665896,253.491736 128.838644,236.850286 128.227879,219.48774 L128.227879,219.48774 Z M310.634535,219.48774 L383.540016,219.48774 C381.227078,249.945242 371.455349,278.31399 355.807342,302.572445 C340.900108,292.299228 323.671854,283.54868 304.630555,276.832017 C307.920371,258.771695 309.991653,239.519301 310.634535,219.48774 L310.634535,219.48774 Z M205.707821,288.129034 C229.210228,288.129034 251.71817,291.085665 272.323419,296.137452 C268.402098,310.854303 263.527271,324.197093 258.028225,335.749261 C242.636873,368.082893 223.184392,384.227304 205.707821,384.227304 C188.23125,384.227304 168.778769,368.082893 153.387417,335.749261 C147.888372,324.197093 143.013545,310.854303 139.092223,296.137452 C159.697473,291.085665 182.205415,288.129034 205.707821,288.129034 L205.707821,288.129034 Z M112.789068,304.145413 C117.074191,319.924474 122.448797,334.434187 128.656734,347.475187 C133.087045,356.782217 138.051662,365.451373 143.523732,373.216072 C115.857511,362.956116 91.4231933,346.087409 72.1907234,324.451786 C83.8329769,316.632673 97.5354492,309.763742 112.789068,304.145413 L112.789068,304.145413 Z M298.626574,304.145413 C313.880193,309.763742 327.582666,316.632673 339.224919,324.451786 C319.992449,346.087409 295.558131,362.956116 267.89191,373.216072 C273.363981,365.451373 278.328597,356.782217 282.758908,347.475187 C288.96685,334.434187 294.341452,319.924474 298.626574,304.145413 Z" id="Shape"></path>
                    </g>
                    <path d="M211.583034,566.487871 L251.7372,566.487871 L251.7372,535.540645 L217.507419,535.540645 C150.364386,535.540645 135.882556,518.420903 135.882556,475.621548 C135.882556,435.456 139.832146,401.216516 139.832146,356.441806 C139.832146,313.642452 125.350315,292.572 79.9300282,284.670581 L79.9300282,282.036774 C125.350315,274.135355 139.832146,253.064903 139.832146,210.265548 C139.832146,169.441548 135.882556,128.617548 135.882556,91.0858065 C135.882556,48.2864516 150.364386,31.1667097 217.507419,31.1667097 L251.7372,31.1667097 L251.7372,0.219483871 L211.583034,0.219483871 C128.64164,0.219483871 89.8040036,19.9730323 89.8040036,87.7935484 C89.8040036,133.22671 95.7283888,173.392258 95.7283888,214.87471 C95.7283888,240.554323 77.9552331,265.575484 0.279959777,266.233935 L0.279959777,300.473419 C77.9552331,301.131871 95.7283888,326.153032 95.7283888,351.832645 C95.7283888,395.948903 89.8040036,430.846839 89.8040036,478.913806 C89.8040036,546.734323 128.64164,566.487871 211.583034,566.487871 Z" id="{"></path>
                    <path d="M562.438294,566.487871 L602.59246,566.487871 C684.875589,566.487871 723.713225,546.734323 723.713225,478.913806 C723.713225,430.846839 717.78884,395.948903 717.78884,351.832645 C717.78884,326.153032 735.561996,301.131871 813.237269,300.473419 L813.237269,266.233935 C735.561996,265.575484 717.78884,240.554323 717.78884,214.87471 C717.78884,173.392258 723.713225,133.22671 723.713225,87.7935484 C723.713225,19.9730323 684.875589,0.219483871 602.59246,0.219483871 L562.438294,0.219483871 L562.438294,31.1667097 L596.00981,31.1667097 C663.152843,31.1667097 678.292939,48.2864516 678.292939,91.0858065 C678.292939,128.617548 674.343348,169.441548 674.343348,210.265548 C674.343348,253.064903 688.166914,274.135355 733.587201,282.036774 L733.587201,284.670581 C688.166914,292.572 674.343348,313.642452 674.343348,356.441806 C674.343348,401.216516 678.292939,435.456 678.292939,475.621548 C678.292939,518.420903 663.152843,535.540645 596.00981,535.540645 L562.438294,535.540645 L562.438294,566.487871 Z" id="}"></path>
                </g>
            </g>
        </g>
    </g>
</svg>