<?xml version="1.0" standalone="no"?>
<!DOCTYPE svg PUBLIC "-//W3C//DTD SVG 20010904//EN"
 "http://www.w3.org/TR/2001/REC-SVG-20010904/DTD/svg10.dtd">
<svg version="1.0" xmlns="http://www.w3.org/2000/svg"
 width="700.000000pt" height="700.000000pt" viewBox="0 0 700.000000 700.000000"
 preserveAspectRatio="xMidYMid meet">
<metadata>
Created by potrace 1.11, written by Peter Selinger 2001-2013
</metadata>
<g transform="translate(0.000000,700.000000) scale(0.100000,-0.100000)"
fill="#000000" stroke="none">
<path d="M1707 5709 c-466 -33 -684 -210 -716 -580 -9 -105 0 -376 24 -744 25
-392 20 -459 -37 -547 -77 -121 -275 -200 -533 -214 -60 -3 -125 -7 -142 -10
l-33 -5 0 -130 c0 -95 3 -131 13 -134 6 -2 76 -9 153 -15 306 -22 490 -104
561 -248 28 -57 28 -58 27 -247 -1 -104 -9 -293 -18 -420 -22 -310 -23 -597
-2 -695 54 -254 220 -396 530 -455 92 -18 371 -34 589 -35 l147 0 0 123 0 124
-247 6 c-359 10 -473 36 -569 131 -97 98 -111 194 -92 641 7 176 13 430 13
565 0 228 -2 250 -23 319 -13 40 -34 90 -46 110 -58 92 -174 164 -319 200 -39
9 -72 22 -74 28 -2 6 13 14 34 18 68 12 187 57 238 90 99 63 151 147 181 290
14 68 16 121 11 350 -4 149 -11 374 -18 500 -11 236 -8 361 12 456 15 70 33
105 78 152 96 102 251 137 606 137 l215 0 0 125 0 125 -227 -1 c-126 -1 -277
-5 -336 -10z"/>
<path d="M4730 5597 l0 -127 210 0 c446 0 610 -61 677 -253 16 -46 18 -87 17
-337 0 -157 -6 -407 -12 -556 -12 -299 -5 -430 28 -530 27 -80 72 -147 127
-189 52 -39 164 -88 246 -106 32 -7 56 -17 54 -22 -2 -6 -39 -20 -84 -32 -215
-57 -317 -156 -361 -349 -18 -82 -19 -378 -2 -697 13 -257 13 -545 -1 -611
-25 -118 -83 -192 -186 -239 -95 -44 -209 -59 -475 -66 l-238 -6 0 -125 0
-125 273 6 c150 4 311 12 357 17 365 45 549 178 622 449 18 66 21 103 20 282
0 113 -8 311 -17 440 -9 129 -18 317 -18 419 -2 184 -2 185 26 242 69 141 256
225 551 248 72 5 141 10 154 10 22 0 22 2 22 134 0 155 7 146 -117 146 -39 0
-106 5 -148 11 -248 34 -401 115 -465 244 -24 48 -25 57 -24 230 1 99 9 289
18 422 21 308 24 607 7 688 -61 286 -220 419 -576 481 -49 9 -198 17 -382 21
l-303 6 0 -126z"/>
<path d="M3365 5063 c-645 -51 -1200 -478 -1413 -1085 -118 -335 -122 -699
-11 -1045 179 -558 649 -971 1246 -1095 155 -32 439 -32 601 0 517 103 940
428 1167 897 301 622 174 1368 -316 1855 -184 182 -386 308 -624 388 -219 74
-436 103 -650 85z m240 -243 c61 -29 168 -134 220 -215 54 -85 110 -207 150
-330 19 -58 35 -110 35 -114 0 -10 -127 -36 -255 -52 -116 -15 -426 -15 -535
0 -139 19 -250 43 -250 54 0 52 94 291 156 398 142 243 316 337 479 259z
m-670 -150 c-56 -95 -120 -244 -158 -370 -19 -62 -27 -74 -43 -72 -23 4 -251
116 -278 136 -18 15 -18 16 7 45 41 49 157 148 232 199 65 44 269 152 286 152
4 0 -16 -41 -46 -90z m1202 23 c48 -25 120 -67 160 -95 69 -48 243 -203 243
-216 0 -18 -305 -171 -316 -160 -1 2 -14 42 -28 89 -42 137 -108 283 -185 411
l-23 38 31 -11 c16 -6 70 -31 118 -56z m-1781 -525 c60 -38 222 -119 287 -143
27 -10 51 -24 54 -31 2 -7 -2 -59 -11 -116 -8 -57 -18 -154 -22 -215 l-7 -113
-289 0 -288 0 6 43 c12 95 36 207 60 282 25 82 140 325 153 325 4 0 29 -14 57
-32z m2381 -74 c79 -148 153 -396 153 -510 l0 -34 -284 0 -284 0 -6 88 c-5 69
-22 221 -39 350 -1 8 30 27 78 46 94 39 202 94 265 135 25 16 50 28 55 27 6
-1 34 -47 62 -102z m-1732 -173 c267 -58 638 -60 925 -7 69 13 126 23 127 22
5 -5 32 -209 38 -293 l7 -93 -611 0 -611 0 0 48 c0 50 28 308 35 330 3 7 13
11 22 9 10 -3 41 -10 68 -16z m-341 -703 c4 -62 14 -160 22 -217 7 -58 14
-110 14 -116 0 -6 -24 -19 -52 -30 -68 -23 -218 -98 -286 -141 -29 -19 -56
-34 -61 -34 -15 0 -118 213 -151 310 -25 75 -70 288 -70 331 0 5 124 9 289 9
l288 0 7 -112z m1431 20 c-7 -95 -33 -289 -39 -296 -2 -2 -21 1 -42 7 -229 61
-650 70 -942 20 -70 -12 -134 -22 -142 -23 -17 -1 -34 98 -45 272 l-8 112 612
0 613 0 -7 -92z m795 56 c0 -51 -35 -218 -66 -310 -28 -84 -102 -243 -133
-283 l-18 -23 -87 52 c-72 43 -176 93 -292 140 l-21 8 19 138 c10 77 21 178
24 227 l6 87 284 0 284 0 0 -36z m-1205 -519 c103 -7 306 -42 319 -55 11 -11
-51 -194 -104 -308 -112 -239 -268 -382 -418 -382 -123 0 -262 117 -370 310
-66 118 -160 378 -139 385 35 11 174 35 262 44 174 19 233 20 450 6z m-902
-216 c36 -115 103 -269 160 -362 26 -43 43 -77 38 -77 -23 0 -247 122 -317
173 -85 61 -224 188 -224 204 0 22 297 170 311 154 3 -3 18 -45 32 -92z m1623
19 c46 -23 95 -51 110 -63 l26 -21 -86 -82 c-103 -96 -248 -196 -370 -252 -49
-23 -90 -39 -92 -37 -2 2 10 25 26 51 65 101 151 299 185 423 l17 62 51 -20
c27 -11 87 -39 133 -61z"/>
</g>
</svg>
