<?xml version="1.0" encoding="UTF-8"?>
<svg width="179px" height="124px" viewBox="0 0 179 124" version="1.1" xmlns="http://www.w3.org/2000/svg" xmlns:xlink="http://www.w3.org/1999/xlink">
    <!-- Generator: Sketch 43.2 (39069) - http://www.bohemiancoding.com/sketch -->
    <title>Group 2</title>
    <desc>Created with Sketch.</desc>
    <defs></defs>
    <g id="Page-1" stroke="none" stroke-width="1" fill="none" fill-rule="evenodd">
        <g id="Group-2" transform="translate(-17.000000, -40.000000)" fill="#0C1824">
            <g id="Group" transform="translate(61.000000, 58.000000)" fill-rule="nonzero">
                <path d="M44.280751,0.026376137 C19.778734,0.413166137 0,20.4034161 0,44.9984461 C0,69.3734461 19.426212,89.2401461 43.624044,89.9706461 C44.571806,90.0146461 45.497161,90.0046461 46.375956,89.9706461 C70.573788,89.2401461 90,69.3734461 90,44.9984461 C90,20.4034161 70.221266,0.413166137 45.719249,0.026376137 C45.084363,-0.00562386301 44.739239,-0.011823863 44.280751,0.026376137 L44.280751,0.026376137 Z M45,5.96844614 C48.823117,5.96844614 53.078483,9.49919614 56.445448,16.5703561 C57.647847,19.0955861 58.683748,22.0477161 59.541348,25.2645461 C55.043818,26.3697361 50.127298,26.9846261 45,26.9846261 C39.872702,26.9846261 34.956182,26.3697361 30.458652,25.2645461 C31.316252,22.0477161 32.352153,19.0955861 33.554552,16.5703561 C36.921517,9.49919614 41.176884,5.96844614 45,5.96844614 Z M31.396803,8.37654614 C30.19975,10.0716961 29.113706,11.9392161 28.144545,13.9746061 C26.78501,16.8298461 25.611324,20.0530161 24.673384,23.5131961 C21.335165,22.2792761 18.339918,20.7532561 15.792217,19.0410061 C19.999452,14.3094461 25.344627,10.6203361 31.396803,8.37654614 L31.396803,8.37654614 Z M58.603197,8.37654614 C64.655373,10.6203361 70.000548,14.3094461 74.207783,19.0410061 C71.660082,20.7532561 68.664835,22.2792761 65.326616,23.5131961 C64.388676,20.0530161 63.21499,16.8298461 61.855455,13.9746061 C60.886295,11.9392161 59.80025,10.0716961 58.603197,8.37654614 L58.603197,8.37654614 Z M12.164698,23.8259461 C15.425758,26.0742061 19.194557,27.9807961 23.359972,29.4552761 C22.639141,33.4107861 22.188185,37.6129961 22.04656,41.9961761 L6.097985,41.9961761 C6.603956,35.3351761 8.741589,29.1311661 12.164698,23.8259461 Z M77.835302,23.8259461 C81.258411,29.1311661 83.396044,35.3351761 83.902015,41.9961761 L67.95344,41.9961761 C67.811815,37.6129961 67.360859,33.4107861 66.640028,29.4552761 C70.805443,27.9807961 74.574242,26.0742061 77.835302,23.8259461 Z M29.176511,31.1440761 C34.115868,32.3369561 39.4436,32.9892461 45,32.9892461 C50.5564,32.9892461 55.884132,32.3369561 60.823489,31.1440761 C61.417292,34.5589461 61.814258,38.1990561 61.94927,41.9961761 L28.05073,41.9961761 C28.185742,38.1990561 28.582708,34.5589461 29.176511,31.1440761 L29.176511,31.1440761 Z M6.097985,48.0008461 L22.04656,48.0008461 C22.187195,52.3816461 22.640302,56.5920461 23.359972,60.5417461 C19.194557,62.0106461 15.425758,63.9243461 12.164698,66.1710461 C8.741589,60.8658461 6.603956,54.6617461 6.097985,48.0008461 L6.097985,48.0008461 Z M28.05073,48.0008461 L61.94927,48.0008461 C61.815661,51.7979461 61.415937,55.4373461 60.823489,58.8529461 C55.884132,57.6660461 50.5564,57.0077461 45,57.0077461 C39.4436,57.0077461 34.115868,57.6660461 29.176511,58.8529461 C28.584063,55.4373461 28.184339,51.7979461 28.05073,48.0008461 L28.05073,48.0008461 Z M67.95344,48.0008461 L83.902015,48.0008461 C83.396044,54.6617461 81.258411,60.8658461 77.835302,66.1710461 C74.574242,63.9243461 70.805443,62.0106461 66.640028,60.5417461 C67.359698,56.5920461 67.812805,52.3816461 67.95344,48.0008461 L67.95344,48.0008461 Z M45,63.0123461 C50.141313,63.0123461 55.06508,63.6589461 59.57262,64.7637461 C58.714804,67.9822461 57.648402,70.9002461 56.445448,73.4266461 C53.078484,80.4978461 48.82312,84.0285461 45,84.0285461 C41.17688,84.0285461 36.921516,80.4978461 33.554552,73.4266461 C32.351598,70.9002461 31.285196,67.9822461 30.42738,64.7637461 C34.93492,63.6589461 39.858687,63.0123461 45,63.0123461 L45,63.0123461 Z M24.673384,66.5150461 C25.610784,69.9658461 26.786516,73.1390461 28.144545,75.9910461 C29.113706,78.0264461 30.19975,79.9223461 31.396803,81.6204461 C25.344627,79.3766461 19.999452,75.6875461 15.792217,70.9559461 C18.33904,69.2459461 21.33655,67.7437461 24.673384,66.5150461 L24.673384,66.5150461 Z M65.326616,66.5150461 C68.66345,67.7437461 71.66096,69.2459461 74.207783,70.9559461 C70.000548,75.6875461 64.655373,79.3766461 58.603197,81.6204461 C59.80025,79.9223461 60.886294,78.0264461 61.855455,75.9910461 C63.213485,73.1390461 64.389216,69.9658461 65.326616,66.5150461 Z" id="Shape"></path>
            </g>
            <text id="{" font-family="SourceCodePro-Regular, Source Code Pro" font-size="144" font-weight="normal">
                <tspan x="0" y="142">{</tspan>
            </text>
            <text id="}" font-family="SourceCodePro-Regular, Source Code Pro" font-size="144" font-weight="normal">
                <tspan x="126" y="142">}</tspan>
            </text>
        </g>
    </g>
</svg>